<svg version="1.1" id="Layer_1" xmlns="http://www.w3.org/2000/svg" xmlns:xlink="http://www.w3.org/1999/xlink" x="0px" y="0px"
	 width="100%" viewBox="0 0 1434 1434" enable-background="new 0 0 1434 1434" xml:space="preserve">
<path fill="#FF9C25" opacity="1.000000" stroke="none" 
	d="
M764.000000,1435.000000 
	C509.333374,1435.000000 255.166763,1435.000000 1.000102,1435.000000 
	C1.000068,957.000122 1.000068,479.000275 1.000034,1.000295 
	C478.999786,1.000196 956.999573,1.000196 1434.999512,1.000098 
	C1434.999756,478.999725 1434.999756,956.999451 1434.999878,1434.999512 
	C1211.500000,1435.000000 988.000000,1435.000000 764.000000,1435.000000 
M525.411377,1228.930176 
	C558.670288,1217.335083 586.697144,1197.832397 610.947693,1172.543579 
	C643.906982,1138.173340 665.126770,1097.834351 673.349609,1050.789795 
	C677.894592,1024.786743 677.417358,998.705017 674.905090,972.572021 
	C671.544373,937.612854 662.324768,904.647583 643.320312,874.625793 
	C627.485901,849.611938 609.022827,827.389221 585.165405,809.386230 
	C571.018921,798.711243 573.464355,799.269287 581.859253,787.565491 
	C613.803162,743.031006 646.124878,698.763062 678.743835,654.720093 
	C687.634949,642.715027 697.450134,631.242065 707.956116,620.628418 
	C718.241760,610.237305 727.329285,610.928223 737.257019,621.680908 
	C743.219360,628.138794 748.762146,635.133545 753.552734,642.498901 
	C780.422180,683.809631 811.068054,722.173523 843.440369,759.239197 
	C852.092651,769.145935 860.460205,779.329163 868.469604,789.760803 
	C874.860168,798.084045 874.119812,800.761475 865.667236,806.703064 
	C864.167664,807.757080 862.654175,808.791382 861.158936,809.851440 
	C822.323059,837.385010 794.640991,873.382629 779.073364,918.467285 
	C766.534119,954.781372 763.170898,992.216980 765.974548,1030.349487 
	C770.228943,1088.211670 790.929749,1138.595825 833.233521,1179.341797 
	C865.426147,1210.348877 902.090210,1232.166748 947.541748,1236.609253 
	C972.382141,1239.037109 997.145325,1239.171021 1021.643250,1233.695801 
	C1046.154541,1228.217651 1067.853149,1216.837280 1087.429077,1201.299561 
	C1116.281006,1178.399292 1141.125366,1151.935181 1159.142578,1119.540039 
	C1181.321899,1079.661377 1187.650879,1036.475952 1185.520386,991.567566 
	C1183.946411,958.392944 1177.167725,926.531006 1161.470459,896.953979 
	C1143.410767,862.925659 1117.500610,835.662537 1087.737061,811.766479 
	C1064.535278,793.138611 1038.610718,780.224182 1008.845276,776.653320 
	C993.834045,774.852478 978.617493,774.503540 963.477966,774.111633 
	C950.740234,773.781921 940.074097,769.796082 931.838196,759.792786 
	C926.758118,753.622375 921.138245,747.885681 916.217651,741.596680 
	C895.235779,714.779358 876.928406,686.149658 859.444946,656.977112 
	C823.403809,596.839478 796.763428,533.141663 786.464478,463.316040 
	C782.825439,438.644104 781.947937,413.956635 785.837280,389.144165 
	C791.613525,352.294250 811.904602,329.001465 848.632690,321.060028 
	C867.824219,316.910400 887.138977,313.239075 906.514099,310.058472 
	C922.606934,307.416718 938.849976,305.625397 955.072937,303.892395 
	C958.450134,303.531616 962.031372,305.081818 965.518616,305.751343 
	C964.345642,309.223358 963.879028,313.177948 961.888489,316.091461 
	C945.210938,340.502441 934.310242,367.342682 927.728271,396.016724 
	C916.744507,443.866821 916.312439,491.431549 931.992554,538.503479 
	C948.325378,587.534851 976.702637,627.800659 1020.208130,656.179382 
	C1072.626953,690.372375 1129.396118,699.738525 1189.348145,680.315063 
	C1244.198730,662.544312 1283.724243,625.703552 1310.841431,575.551331 
	C1336.272095,528.518188 1344.584961,477.953461 1337.848022,425.065399 
	C1330.829712,369.969055 1309.080322,321.642853 1269.072021,282.462433 
	C1242.882690,256.815033 1212.271484,237.609634 1176.282593,230.067780 
	C1153.462769,225.285629 1129.693726,224.391296 1106.277344,223.245621 
	C1070.059326,221.473648 1034.036987,225.670258 998.085632,229.465988 
	C955.513306,233.960739 913.003479,239.055099 870.480469,244.008514 
	C823.655640,249.463058 776.849487,255.078918 730.028076,260.563019 
	C719.780457,261.763306 709.501221,263.548981 699.238647,263.534790 
	C688.122742,263.519440 677.006348,261.746277 665.895386,260.684418 
	C604.866150,254.851730 543.861145,248.750534 482.803253,243.235626 
	C431.367554,238.589844 379.778534,235.496902 328.427612,230.097778 
	C278.699341,224.869247 235.643768,239.138931 197.318970,269.932526 
	C167.961487,293.520935 146.087067,322.983459 129.895508,356.869019 
	C114.692223,388.686371 106.187088,421.807465 108.635315,457.378540 
	C109.756081,473.662415 110.080086,490.000275 110.837952,506.310272 
	C111.658997,523.979797 115.846725,540.805054 122.982048,557.023560 
	C144.536163,606.015869 177.737152,644.563354 224.529343,671.004883 
	C245.872513,683.065674 268.328857,691.239197 293.354980,690.693604 
	C307.846741,690.377686 322.356964,690.361023 336.848206,690.685730 
	C361.971100,691.248718 384.439148,683.219727 406.339630,671.593872 
	C467.728882,639.005615 522.364258,554.070007 522.660339,490.409393 
	C522.801575,460.042572 524.210388,429.805023 517.933472,399.835388 
	C512.688232,374.791595 502.236633,351.809937 490.505737,329.302582 
	C487.857849,324.222168 485.405945,319.039612 482.389038,312.944977 
	C499.975220,315.404480 516.455200,317.583282 532.893616,320.040161 
	C553.487671,323.118073 574.030579,326.422668 593.696289,333.742493 
	C613.307800,341.042114 625.456909,354.848511 631.125977,374.863922 
	C642.309814,414.349670 643.560303,454.357330 637.628174,494.723175 
	C629.872131,547.500305 612.101868,596.958984 587.940918,644.336426 
	C565.452271,688.434753 535.754272,727.515137 504.453247,765.503601 
	C503.296753,766.907166 500.825134,767.749023 498.890594,767.903442 
	C487.597168,768.805054 476.285187,769.497314 464.971863,770.122253 
	C438.463226,771.586731 412.517822,775.793762 388.590698,787.911987 
	C343.303497,810.848267 309.054291,845.776917 285.135681,889.878845 
	C252.656342,949.765259 249.659058,1013.768005 266.050873,1078.750610 
	C279.408691,1131.705200 311.006500,1172.507202 355.503235,1203.562744 
	C407.642792,1239.952637 464.000977,1248.827148 525.411377,1228.930176 
z"/>
<path fill="#020100" opacity="1.000000" stroke="none" 
	d="
M525.029663,1229.028809 
	C464.000977,1248.827148 407.642792,1239.952637 355.503235,1203.562744 
	C311.006500,1172.507202 279.408691,1131.705200 266.050873,1078.750610 
	C249.659058,1013.768005 252.656342,949.765259 285.135681,889.878845 
	C309.054291,845.776917 343.303497,810.848267 388.590698,787.911987 
	C412.517822,775.793762 438.463226,771.586731 464.971863,770.122253 
	C476.285187,769.497314 487.597168,768.805054 498.890594,767.903442 
	C500.825134,767.749023 503.296753,766.907166 504.453247,765.503601 
	C535.754272,727.515137 565.452271,688.434753 587.940918,644.336426 
	C612.101868,596.958984 629.872131,547.500305 637.628174,494.723175 
	C643.560303,454.357330 642.309814,414.349670 631.125977,374.863922 
	C625.456909,354.848511 613.307800,341.042114 593.696289,333.742493 
	C574.030579,326.422668 553.487671,323.118073 532.893616,320.040161 
	C516.455200,317.583282 499.975220,315.404480 482.389038,312.944977 
	C485.405945,319.039612 487.857849,324.222168 490.505737,329.302582 
	C502.236633,351.809937 512.688232,374.791595 517.933472,399.835388 
	C524.210388,429.805023 522.801575,460.042572 522.660339,490.409393 
	C522.364258,554.070007 467.728882,639.005615 406.339630,671.593872 
	C384.439148,683.219727 361.971100,691.248718 336.848206,690.685730 
	C322.356964,690.361023 307.846741,690.377686 293.354980,690.693604 
	C268.328857,691.239197 245.872513,683.065674 224.529343,671.004883 
	C177.737152,644.563354 144.536163,606.015869 122.982048,557.023560 
	C115.846725,540.805054 111.658997,523.979797 110.837952,506.310272 
	C110.080086,490.000275 109.756081,473.662415 108.635315,457.378540 
	C106.187088,421.807465 114.692223,388.686371 129.895508,356.869019 
	C146.087067,322.983459 167.961487,293.520935 197.318970,269.932526 
	C235.643768,239.138931 278.699341,224.869247 328.427612,230.097778 
	C379.778534,235.496902 431.367554,238.589844 482.803253,243.235626 
	C543.861145,248.750534 604.866150,254.851730 665.895386,260.684418 
	C677.006348,261.746277 688.122742,263.519440 699.238647,263.534790 
	C709.501221,263.548981 719.780457,261.763306 730.028076,260.563019 
	C776.849487,255.078918 823.655640,249.463058 870.480469,244.008514 
	C913.003479,239.055099 955.513306,233.960739 998.085632,229.465988 
	C1034.036987,225.670258 1070.059326,221.473648 1106.277344,223.245621 
	C1129.693726,224.391296 1153.462769,225.285629 1176.282593,230.067780 
	C1212.271484,237.609634 1242.882690,256.815033 1269.072021,282.462433 
	C1309.080322,321.642853 1330.829712,369.969055 1337.848022,425.065399 
	C1344.584961,477.953461 1336.272095,528.518188 1310.841431,575.551331 
	C1283.724243,625.703552 1244.198730,662.544312 1189.348145,680.315063 
	C1129.396118,699.738525 1072.626953,690.372375 1020.208130,656.179382 
	C976.702637,627.800659 948.325378,587.534851 931.992554,538.503479 
	C916.312439,491.431549 916.744507,443.866821 927.728271,396.016724 
	C934.310242,367.342682 945.210938,340.502441 961.888489,316.091461 
	C963.879028,313.177948 964.345642,309.223358 965.518616,305.751343 
	C962.031372,305.081818 958.450134,303.531616 955.072937,303.892395 
	C938.849976,305.625397 922.606934,307.416718 906.514099,310.058472 
	C887.138977,313.239075 867.824219,316.910400 848.632690,321.060028 
	C811.904602,329.001465 791.613525,352.294250 785.837280,389.144165 
	C781.947937,413.956635 782.825439,438.644104 786.464478,463.316040 
	C796.763428,533.141663 823.403809,596.839478 859.444946,656.977112 
	C876.928406,686.149658 895.235779,714.779358 916.217651,741.596680 
	C921.138245,747.885681 926.758118,753.622375 931.838196,759.792786 
	C940.074097,769.796082 950.740234,773.781921 963.477966,774.111633 
	C978.617493,774.503540 993.834045,774.852478 1008.845276,776.653320 
	C1038.610718,780.224182 1064.535278,793.138611 1087.737061,811.766479 
	C1117.500610,835.662537 1143.410767,862.925659 1161.470459,896.953979 
	C1177.167725,926.531006 1183.946411,958.392944 1185.520386,991.567566 
	C1187.650879,1036.475952 1181.321899,1079.661377 1159.142578,1119.540039 
	C1141.125366,1151.935181 1116.281006,1178.399292 1087.429077,1201.299561 
	C1067.853149,1216.837280 1046.154541,1228.217651 1021.643250,1233.695801 
	C997.145325,1239.171021 972.382141,1239.037109 947.541748,1236.609253 
	C902.090210,1232.166748 865.426147,1210.348877 833.233521,1179.341797 
	C790.929749,1138.595825 770.228943,1088.211670 765.974548,1030.349487 
	C763.170898,992.216980 766.534119,954.781372 779.073364,918.467285 
	C794.640991,873.382629 822.323059,837.385010 861.158936,809.851440 
	C862.654175,808.791382 864.167664,807.757080 865.667236,806.703064 
	C874.119812,800.761475 874.860168,798.084045 868.469604,789.760803 
	C860.460205,779.329163 852.092651,769.145935 843.440369,759.239197 
	C811.068054,722.173523 780.422180,683.809631 753.552734,642.498901 
	C748.762146,635.133545 743.219360,628.138794 737.257019,621.680908 
	C727.329285,610.928223 718.241760,610.237305 707.956116,620.628418 
	C697.450134,631.242065 687.634949,642.715027 678.743835,654.720093 
	C646.124878,698.763062 613.803162,743.031006 581.859253,787.565491 
	C573.464355,799.269287 571.018921,798.711243 585.165405,809.386230 
	C609.022827,827.389221 627.485901,849.611938 643.320312,874.625793 
	C662.324768,904.647583 671.544373,937.612854 674.905090,972.572021 
	C677.417358,998.705017 677.894592,1024.786743 673.349609,1050.789795 
	C665.126770,1097.834351 643.906982,1138.173340 610.947693,1172.543579 
	C586.697144,1197.832397 558.670288,1217.335083 525.029663,1229.028809 
M521.432068,1145.963989 
	C552.608398,1121.674316 574.964355,1091.414917 584.401123,1052.505493 
	C592.249573,1020.144836 591.294373,987.738708 584.243164,955.406006 
	C578.037659,926.951050 566.588562,900.970947 547.019592,879.013245 
	C512.921326,840.752563 460.396210,831.061829 417.139343,855.279663 
	C392.247528,869.215637 375.166046,890.477905 363.014832,915.796021 
	C344.923645,953.490601 339.284027,993.263306 344.939667,1034.591431 
	C350.244659,1073.357300 365.664673,1107.257080 393.492462,1135.344849 
	C430.971252,1173.173828 491.507812,1170.640747 521.432068,1145.963989 
M261.377899,603.179565 
	C275.059296,611.710144 290.293640,615.018860 306.087708,615.910828 
	C334.707764,617.527161 361.876770,613.263855 383.821503,592.860352 
	C392.178192,585.090576 400.298218,576.592102 406.564240,567.126892 
	C440.399139,516.017334 449.373047,460.710297 432.439819,401.558258 
	C423.795349,371.360992 409.523621,344.494934 385.497711,323.469421 
	C347.229279,289.979980 293.517242,293.331238 264.172852,311.981567 
	C236.501556,329.568542 215.856613,353.607361 205.105408,384.718933 
	C188.675400,432.263672 189.740891,480.384430 204.733765,528.068359 
	C214.561920,559.326111 232.352722,585.186401 261.377899,603.179565 
M1041.636475,865.851257 
	C1007.548584,838.563232 970.259216,835.311707 930.860779,851.993530 
	C914.569885,858.891296 901.889038,870.975769 891.580933,885.205078 
	C874.443481,908.861572 858.947266,933.769592 856.567078,963.605347 
	C854.651367,987.617920 855.634766,1011.872131 855.632202,1036.019165 
	C855.631592,1041.638794 856.117920,1047.463989 857.628113,1052.844360 
	C866.641907,1084.957153 881.191711,1114.197510 905.923218,1137.139160 
	C938.246887,1167.123657 992.102722,1171.977295 1028.152954,1148.800903 
	C1047.902222,1136.104248 1062.761353,1118.664917 1074.638062,1098.652588 
	C1084.907349,1081.348755 1093.900146,1063.264526 1094.677734,1042.762207 
	C1095.630493,1017.642456 1095.420898,992.473145 1095.391357,967.325623 
	C1095.384399,961.375244 1094.873047,955.204468 1093.259277,949.513489 
	C1084.050415,917.038757 1066.821655,889.368713 1041.636475,865.851257 
M1053.762939,581.739807 
	C1087.293823,612.985168 1126.582275,617.264771 1168.781860,605.387756 
	C1184.000488,601.104431 1194.905640,589.611572 1205.179321,578.173096 
	C1226.268799,554.692566 1243.284546,528.868774 1248.731812,496.978546 
	C1253.111572,471.337952 1252.936768,445.609436 1249.947144,419.811920 
	C1245.756592,383.653015 1231.720581,352.158325 1205.794067,326.392639 
	C1170.692871,291.509277 1121.287476,283.953461 1079.518555,307.095856 
	C1052.800659,321.899139 1034.830200,344.631683 1022.929016,372.297791 
	C1005.961670,411.740784 1002.668274,452.746246 1010.657837,494.683472 
	C1016.884888,527.369507 1029.593140,557.048645 1053.762939,581.739807 
z"/>
<path fill="#FE9C25" opacity="1.000000" stroke="none" 
	d="
M521.153503,1146.186646 
	C491.507812,1170.640747 430.971252,1173.173828 393.492462,1135.344849 
	C365.664673,1107.257080 350.244659,1073.357300 344.939667,1034.591431 
	C339.284027,993.263306 344.923645,953.490601 363.014832,915.796021 
	C375.166046,890.477905 392.247528,869.215637 417.139343,855.279663 
	C460.396210,831.061829 512.921326,840.752563 547.019592,879.013245 
	C566.588562,900.970947 578.037659,926.951050 584.243164,955.406006 
	C591.294373,987.738708 592.249573,1020.144836 584.401123,1052.505493 
	C574.964355,1091.414917 552.608398,1121.674316 521.153503,1146.186646 
z"/>
<path fill="#FE9C25" opacity="1.000000" stroke="none" 
	d="
M261.063538,602.994751 
	C232.352722,585.186401 214.561920,559.326111 204.733765,528.068359 
	C189.740891,480.384430 188.675400,432.263672 205.105408,384.718933 
	C215.856613,353.607361 236.501556,329.568542 264.172852,311.981567 
	C293.517242,293.331238 347.229279,289.979980 385.497711,323.469421 
	C409.523621,344.494934 423.795349,371.360992 432.439819,401.558258 
	C449.373047,460.710297 440.399139,516.017334 406.564240,567.126892 
	C400.298218,576.592102 392.178192,585.090576 383.821503,592.860352 
	C361.876770,613.263855 334.707764,617.527161 306.087708,615.910828 
	C290.293640,615.018860 275.059296,611.710144 261.063538,602.994751 
z"/>
<path fill="#FE9C25" opacity="1.000000" stroke="none" 
	d="
M1041.905518,866.081909 
	C1066.821655,889.368713 1084.050415,917.038757 1093.259277,949.513489 
	C1094.873047,955.204468 1095.384399,961.375244 1095.391357,967.325623 
	C1095.420898,992.473145 1095.630493,1017.642456 1094.677734,1042.762207 
	C1093.900146,1063.264526 1084.907349,1081.348755 1074.638062,1098.652588 
	C1062.761353,1118.664917 1047.902222,1136.104248 1028.152954,1148.800903 
	C992.102722,1171.977295 938.246887,1167.123657 905.923218,1137.139160 
	C881.191711,1114.197510 866.641907,1084.957153 857.628113,1052.844360 
	C856.117920,1047.463989 855.631592,1041.638794 855.632202,1036.019165 
	C855.634766,1011.872131 854.651367,987.617920 856.567078,963.605347 
	C858.947266,933.769592 874.443481,908.861572 891.580933,885.205078 
	C901.889038,870.975769 914.569885,858.891296 930.860779,851.993530 
	C970.259216,835.311707 1007.548584,838.563232 1041.905518,866.081909 
z"/>
<path fill="#FE9C25" opacity="1.000000" stroke="none" 
	d="
M1053.511719,581.489990 
	C1029.593140,557.048645 1016.884888,527.369507 1010.657837,494.683472 
	C1002.668274,452.746246 1005.961670,411.740784 1022.929016,372.297791 
	C1034.830200,344.631683 1052.800659,321.899139 1079.518555,307.095856 
	C1121.287476,283.953461 1170.692871,291.509277 1205.794067,326.392639 
	C1231.720581,352.158325 1245.756592,383.653015 1249.947144,419.811920 
	C1252.936768,445.609436 1253.111572,471.337952 1248.731812,496.978546 
	C1243.284546,528.868774 1226.268799,554.692566 1205.179321,578.173096 
	C1194.905640,589.611572 1184.000488,601.104431 1168.781860,605.387756 
	C1126.582275,617.264771 1087.293823,612.985168 1053.511719,581.489990 
z"/>
</svg>